<?xml version="1.0" encoding="utf-8"?>
<!-- Generator: Adobe Illustrator 21.0.0, SVG Export Plug-In . SVG Version: 6.00 Build 0)  -->
<svg version="1.1" id="Слой_1" xmlns="http://www.w3.org/2000/svg" xmlns:xlink="http://www.w3.org/1999/xlink" x="0px" y="0px"
	 viewBox="0 0 80.4 45.4" enable-background="new 0 0 80.4 45.4" xml:space="preserve">
<g>
	<path fill="#ee7c20" d="M26.1,32.1c-0.4,0-0.8,0.1-1.1,0.2v2.7c0,0.4,0.5,0.6,1.1,0.6c1,0,1.3-0.4,1.3-1.7
		C27.4,32.4,27.1,32.1,26.1,32.1z"/>
	<path fill="#ee7c20" d="M39.7,34.1H38v1.5h1.7c0.5,0,0.6-0.2,0.6-0.7C40.3,34.4,40.1,34.1,39.7,34.1z"/>
	<path fill="#ee7c20" d="M40.2,32.8c0-0.4-0.1-0.6-0.6-0.6H38v1.2h1.6C40.1,33.4,40.2,33.2,40.2,32.8z"/>
	<path fill="#ee7c20" d="M43.3,34.8c0,0.8,0.2,0.9,1.1,0.9c0.4,0,0.8-0.1,1.1-0.2V34c-0.3-0.1-0.7-0.1-1.1-0.1
		C43.5,33.9,43.3,34,43.3,34.8z"/>
	<path fill="#ee7c20" d="M49.7,32.1c-0.4,0-0.8,0.1-1.1,0.2v2.7c0,0.4,0.5,0.6,1.1,0.6c1,0,1.3-0.4,1.3-1.7
		C51,32.4,50.7,32.1,49.7,32.1z"/>
	<path fill="#ee7c20" d="M0,0v45.4h80.4V0H0z M55.4,9.6c0-0.9,0.8-1.7,1.7-1.7h1.4c0.9,0,1.7,0.8,1.7,1.7v2.6c0,0.9-0.8,1.7-1.7,1.7
		h-1.4c-0.9,0-1.7-0.8-1.7-1.7V9.6z M33.1,9.6c0-0.9,0.8-1.7,1.7-1.7h1.4c0.9,0,1.7,0.8,1.7,1.7v2.6c0,0.9-0.8,1.7-1.7,1.7h-1.4
		c-0.9,0-1.7-0.8-1.7-1.7V9.6z M11.4,9.6c0-0.9,0.8-1.7,1.7-1.7h1.4c0.9,0,1.7,0.8,1.7,1.7v2.6c0,0.9-0.8,1.7-1.7,1.7h-1.4
		c-0.9,0-1.7-0.8-1.7-1.7V9.6z M10.6,25.4l-1.1-1.1c-0.6-0.7-0.6-1.8,0-2.4L21.5,9.2c0.3-0.3,0.8-0.5,1.2-0.5c0.4,0,0.9,0.2,1.2,0.5
		l9.8,10.4l9.8-10.4c0.3-0.3,0.8-0.5,1.2-0.5c0.4,0,0.9,0.2,1.2,0.5l11.9,12.6c0.6,0.7,0.6,1.8,0,2.4l-1.1,1.1
		c-0.6,0.7-1.7,0.7-2.3,0l-9.8-10.4L35,25.4c-0.3,0.4-0.8,0.5-1.3,0.5c-0.5,0-0.9-0.1-1.3-0.5l-9.8-10.4l-9.8,10.4
		C12.3,26.1,11.3,26.1,10.6,25.4z M17.3,36.3h-0.9v-3.9c-0.5,1.1-1.1,2.5-1.5,3.6h-0.7c-0.4-1.1-1-2.5-1.4-3.6v3.9h-0.9v-4.8h1.4
		c0.5,1.1,1,2.1,1.4,3.2c0.4-1.1,0.9-2.2,1.4-3.2h1.3V36.3z M22.7,36.3h-0.9v-3.4c-0.7,1.2-1.5,2.4-2.3,3.4h-0.9v-4.8h0.9V35
		c0.8-1,1.6-2.3,2.3-3.5h0.9V36.3z M26.2,36.4c-0.6,0-1-0.2-1.2-0.3v2h-0.9v-6.4c0.5-0.2,1.4-0.4,2-0.4c1.5,0,2.2,0.6,2.2,2.5
		C28.4,35.8,27.6,36.4,26.2,36.4z M35.3,36.3c-0.9-1.8-1.6-2.2-2.2-2.3v2.3h-0.9v-4.8h0.9v2.3c0.4-0.4,1.2-1.3,2.1-2.3h1.1
		c-1,1.2-1.7,2-2,2.2c0.5,0.2,1,0.5,2.1,2.6H35.3z M39.9,36.3h-2.8v-4.8h2.7c1.1,0,1.3,0.5,1.3,1.1c0,0.6-0.2,1-1,1.1
		c0.9,0,1.1,0.6,1.1,1.2C41.3,35.9,40.8,36.3,39.9,36.3z M46.4,36c-0.6,0.2-1.4,0.4-2.1,0.4c-1.5,0-2-0.4-2-1.6
		c0-1.4,0.8-1.6,1.9-1.6c0.5,0,0.8,0,1.3,0.1c0-1-0.3-1.2-1.3-1.2c-0.5,0-1,0.1-1.4,0.2l-0.2-0.8c0.4-0.1,1.1-0.2,1.8-0.2
		c1.4,0,2,0.4,2,1.9V36z M49.8,36.4c-0.6,0-1-0.2-1.2-0.3v2h-0.9v-6.4c0.5-0.2,1.4-0.4,2-0.4c1.5,0,2.2,0.6,2.2,2.5
		C52,35.8,51.2,36.4,49.8,36.4z M57,32.3h-1.8v4h-0.9v-4h-1.8v-0.8H57V32.3z M61.9,36.3H61v-3.4c-0.7,1.2-1.5,2.4-2.3,3.4h-0.9v-4.8
		h0.9V35c0.8-1,1.6-2.3,2.3-3.5h0.9V36.3z M65.4,36.4c-0.6,0-1-0.2-1.2-0.3v2h-0.9v-6.4c0.5-0.2,1.4-0.4,2-0.4
		c1.5,0,2.2,0.6,2.2,2.5C67.5,35.8,66.8,36.4,65.4,36.4z M69.8,24.3l-1.1,1.1c-0.6,0.7-1.7,0.7-2.3,0l-6.7-7.1
		c-0.3-0.3-0.5-0.8-0.5-1.2c0-0.4,0.2-0.9,0.5-1.2L66,9.2c0.6-0.7,1.7-0.7,2.3,0l1.1,1.1c0.6,0.7,0.6,1.8,0,2.4l-4.1,4.3l4.5,4.8
		C70.4,22.5,70.4,23.6,69.8,24.3z"/>
	<path fill="#ee7c20" d="M65.3,32.1c-0.4,0-0.8,0.1-1.1,0.2v2.7c0,0.4,0.5,0.6,1.1,0.6c1,0,1.3-0.4,1.3-1.7
		C66.6,32.4,66.3,32.1,65.3,32.1z"/>
</g>
</svg>
